<?xml version="1.0" standalone="no"?>
<!DOCTYPE svg PUBLIC "-//W3C//DTD SVG 20010904//EN"
 "http://www.w3.org/TR/2001/REC-SVG-20010904/DTD/svg10.dtd">
<svg version="1.0" xmlns="http://www.w3.org/2000/svg"
 width="300.000000pt" height="300.000000pt" viewBox="0 0 300.000000 300.000000"
 preserveAspectRatio="xMidYMid meet">
<metadata>
Created by potrace 1.10, written by Peter Selinger 2001-2011
</metadata>
<g transform="translate(0.000000,300.000000) scale(0.100000,-0.100000)"
fill="#000000" stroke="none">
<path d="M1260 2130 c-11 -11 -22 -31 -26 -45 -6 -24 -9 -25 -88 -25 -69 0
-84 3 -99 20 -23 27 -71 26 -91 -2 -21 -30 -20 -54 4 -78 25 -25 62 -26 85 0
15 16 33 20 118 22 l101 3 2 33 c3 63 0 62 289 62 241 0 263 -1 278 -18 10
-10 17 -33 17 -50 l0 -32 100 0 c87 0 103 -3 120 -20 28 -28 64 -25 89 7 23
28 20 59 -7 81 -24 18 -69 15 -84 -7 -12 -16 -28 -20 -98 -22 l-85 -2 -3 26
c-2 15 -15 36 -29 47 -24 19 -40 20 -299 20 -259 0 -275 -1 -294 -20z m-232
-88 c4 -28 -24 -40 -45 -19 -21 21 -9 49 19 45 15 -2 24 -11 26 -26z m1110 0
c4 -28 -24 -41 -44 -20 -20 20 -7 50 20 46 13 -2 22 -12 24 -26z"/>
<path d="M1304 2075 c-2 -5 -5 -26 -6 -45 -3 -35 -3 -35 -55 -38 l-53 -3 0
-42 0 -42 -71 0 c-62 0 -72 -3 -88 -23 -14 -20 -25 -23 -62 -21 -35 3 -44 0
-47 -14 -3 -14 4 -17 46 -17 36 0 54 -5 67 -20 15 -16 31 -20 87 -20 l68 0 0
-39 0 -40 53 -3 52 -3 3 -48 3 -47 257 2 257 3 3 48 3 47 55 0 54 0 -6 40 -7
40 77 0 c65 0 78 3 88 20 10 16 24 20 66 20 45 0 53 3 50 17 -2 14 -12 17 -49
14 -39 -2 -51 2 -73 24 -24 24 -33 26 -89 23 l-62 -3 3 43 4 42 -56 0 -56 0 0
45 c0 25 -3 45 -7 45 -165 6 -506 3 -509 -5z m250 -34 c6 -8 -89 -259 -104
-274 -7 -8 -90 62 -90 76 0 4 20 28 45 54 50 52 64 86 46 114 -15 26 -15 27
17 32 50 8 81 7 86 -2z m103 -33 c-2 -7 -33 -86 -67 -175 -59 -154 -63 -161
-92 -165 -38 -6 -44 9 -23 58 9 22 35 86 57 144 22 58 44 115 49 128 7 17 16
22 45 22 25 0 35 -4 31 -12z m-227 -22 c0 -17 -19 -41 -66 -82 l-66 -58 66
-59 c47 -42 66 -66 66 -83 0 -19 -5 -24 -27 -24 -21 0 -46 18 -100 72 -42 42
-73 81 -73 93 0 11 31 51 72 92 55 56 79 73 100 73 23 0 28 -4 28 -24z m384
-47 c52 -49 76 -79 76 -94 0 -30 -145 -165 -177 -165 -43 0 -28 42 37 104 33
32 60 59 60 61 0 2 -27 29 -60 61 -66 63 -80 104 -36 104 17 0 49 -23 100 -71z
m-82 -62 l28 -28 -45 -48 c-56 -60 -67 -87 -49 -123 13 -25 13 -27 -15 -33
-40 -9 -104 4 -93 19 4 6 21 45 36 86 16 41 39 99 53 128 26 60 27 60 85 -1z
m-638 -3 c9 -3 16 -17 16 -30 0 -19 -5 -24 -25 -24 -30 0 -43 24 -25 45 14 17
13 17 34 9z m966 -9 c7 -8 10 -22 6 -30 -7 -20 -55 -20 -62 0 -7 17 12 45 31
45 7 0 18 -7 25 -15z m-866 -22 c4 -16 0 -19 -20 -15 -34 6 -40 21 -12 31 27
10 27 10 32 -16z m770 9 c10 -5 -13 -22 -31 -22 -7 0 -13 9 -13 20 0 18 13 19
44 2z"/>
<path d="M960 1700 c-24 -24 -25 -48 -4 -78 20 -28 68 -29 91 -2 15 17 30 20
100 20 77 0 83 -1 83 -21 0 -11 13 -34 29 -50 l29 -29 272 0 271 0 24 25 c14
13 25 36 25 50 0 25 0 25 88 25 76 0 89 -2 100 -20 21 -35 87 -24 103 17 24
63 -54 110 -102 62 -19 -19 -32 -21 -120 -20 l-99 2 0 -40 c0 -69 -7 -71 -296
-71 -280 0 -279 0 -286 70 l-3 35 -100 3 c-82 3 -104 7 -121 23 -26 25 -59 24
-84 -1z m65 -40 c0 -18 -6 -26 -21 -28 -26 -4 -40 24 -23 45 18 21 44 11 44
-17z m1113 2 c4 -28 -24 -40 -45 -19 -14 13 -14 19 -3 32 18 22 44 15 48 -13z"/>
<path d="M990 1436 c0 -2 18 -36 40 -75 26 -45 40 -83 40 -106 0 -31 3 -35 25
-35 22 0 25 4 25 38 0 24 14 62 40 110 l40 73 -31 -3 c-28 -3 -34 -9 -52 -56
-11 -29 -23 -49 -27 -45 -4 4 -15 29 -25 56 -15 41 -21 47 -46 47 -16 0 -29
-2 -29 -4z"/>
<path d="M1216 1335 c-20 -58 -36 -107 -36 -110 0 -3 11 -5 24 -5 16 0 27 7
31 20 5 16 15 20 52 20 36 0 46 -4 50 -20 4 -14 14 -20 33 -20 l28 0 -24 68
c-58 161 -53 152 -89 152 -32 0 -33 0 -69 -105z m92 9 c16 -56 17 -54 -24 -54
-27 0 -35 4 -31 14 3 8 11 34 17 57 13 47 21 43 38 -17z"/>
<path d="M1540 1420 c0 -16 7 -20 35 -20 l35 0 -7 -90 -6 -90 27 0 26 0 0 90
0 90 35 0 c28 0 35 4 35 20 0 19 -7 20 -90 20 -83 0 -90 -1 -90 -20z"/>
<path d="M1760 1420 c-25 -25 -26 -62 -2 -83 9 -8 39 -21 65 -28 27 -6 51 -18
54 -26 13 -35 -69 -46 -89 -13 -16 25 -48 26 -48 2 0 -39 59 -68 116 -58 43 9
64 30 64 66 0 34 -24 53 -87 69 -50 14 -63 29 -38 48 26 18 42 16 65 -7 21
-21 60 -27 60 -10 0 6 -11 22 -25 35 -32 33 -105 35 -135 5z"/>
<path d="M1960 1356 c0 -68 4 -88 20 -109 43 -54 147 -40 169 23 6 18 11 64
11 101 0 67 -1 69 -25 69 -25 0 -25 -1 -25 -79 0 -89 -9 -104 -62 -99 l-33 3
-3 88 c-3 85 -3 87 -27 87 -25 0 -25 -1 -25 -84z"/>
<path d="M1520 1351 c0 -6 -26 -9 -57 -8 -49 2 -58 -1 -61 -17 -5 -26 13 -42
31 -28 8 7 36 11 63 10 47 -3 49 -2 52 25 2 19 -1 27 -12 27 -9 0 -16 -4 -16
-9z"/>
<path d="M1336 1124 c-23 -22 -20 -33 14 -52 33 -19 34 -37 3 -37 -33 0 -38
-13 -9 -21 52 -13 79 46 31 68 -30 14 -28 34 3 30 25 -4 30 13 6 22 -24 9 -31
8 -48 -10z"/>
<path d="M1443 1130 c-27 -11 -38 -47 -24 -82 9 -25 46 -46 58 -34 4 3 12 1
19 -5 7 -6 18 -8 25 -4 8 6 8 9 0 15 -8 4 -9 14 -3 31 12 30 0 64 -27 78 -23
13 -19 12 -48 1z m51 -36 c13 -34 7 -52 -16 -46 -16 4 -19 2 -13 -9 8 -12 6
-12 -8 0 -17 13 -23 52 -10 64 12 13 41 7 47 -9z"/>
<path d="M1540 1097 c0 -67 47 -112 78 -74 17 20 19 112 3 112 -10 0 -15 -15
-15 -50 -1 -37 -5 -50 -16 -50 -11 0 -16 14 -18 53 -2 37 -7 52 -18 52 -10 0
-14 -12 -14 -43z"/>
<path d="M1677 1133 c-3 -4 -10 -27 -17 -51 -6 -24 -14 -50 -17 -58 -3 -8 1
-14 11 -14 9 0 16 8 16 20 0 13 7 20 20 20 13 0 20 -7 20 -20 0 -11 7 -20 16
-20 10 0 13 6 9 19 -3 10 -11 38 -18 61 -12 41 -30 60 -40 43z"/>
<path d="M1750 1076 c0 -62 1 -66 23 -66 38 0 67 27 67 64 0 39 -14 53 -58 62
l-32 7 0 -67z m62 16 c6 -25 -2 -50 -18 -56 -11 -4 -14 5 -14 39 0 35 3 43 14
39 8 -3 16 -13 18 -22z"/>
</g>
</svg>
